<svg xmlns="http://www.w3.org/2000/svg" viewBox="0 0 24 24" width="24" height="24">
  <title>figure.run.treadmill</title>
  <path transform="matrix(0.7069166046207028, 0, 0, 0.7069166046207028, -0.11246563490170969, 17.981177209407978)" d="M17.11-16.98C18.42-16.98 19.49-18.02 19.49-19.32C19.49-20.65 18.42-21.70 17.11-21.70C15.81-21.70 14.75-20.65 14.75-19.32C14.75-18.02 15.81-16.98 17.11-16.98ZM13.42-7.52L17.55-5.20L14.89-2.91C14.31-2.40 14.33-1.77 14.66-1.38C15.04-0.98 15.68-0.89 16.27-1.39L20.00-4.58C20.52-5.03 20.44-5.94 19.82-6.35L15.76-9.02L16.56-11.82C16.68-12.22 17.13-12.29 17.38-11.93L18.56-10.20C18.84-9.77 19.35-9.64 19.82-9.84L23.26-11.38C23.87-11.65 24.09-12.18 23.82-12.73C23.58-13.28 23.04-13.44 22.43-13.16L19.71-11.96L17.84-14.55C16.85-15.89 15.64-16.45 13.66-16.31L9.83-16.03C9.22-15.98 8.82-15.59 8.74-14.96L8.23-11.11C8.14-10.43 8.46-9.96 9.07-9.89C9.68-9.84 10.04-10.20 10.14-10.86L10.62-14.02L12.15-14.13C12.48-14.16 12.82-13.92 12.70-13.50L11.81-10.39C11.29-8.58 12.47-8.05 13.42-7.52ZM25.16 1.11L26.23 1.04C26.34 1.04 26.40 1.03 26.48 1.04L28.35-9.63L30.90-10.82C31.23-10.98 31.37-11.37 31.22-11.71C31.08-12.01 30.69-12.15 30.34-11.99L24.88-9.45C24.55-9.28 24.40-8.89 24.56-8.57C24.69-8.26 25.09-8.11 25.44-8.27L26.93-8.96ZM6.15 1.82C6.56 2.18 7.17 2.23 7.72 1.69L11.25-1.80C11.54-2.09 11.60-2.16 11.78-2.61L13.22-6.34L12.86-6.55C12.13-6.96 11.53-7.35 11.10-7.90L9.83-3.45L6.18 0.19C5.60 0.76 5.71 1.44 6.15 1.82ZM3.60 4.78L26.66 4.78C27.39 4.78 27.96 4.21 27.96 3.46C27.96 2.60 27.30 2.12 26.40 2.18L3.60 3.54C3.26 3.57 2.99 3.82 2.99 4.17C2.99 4.51 3.26 4.78 3.60 4.78Z" fill="currentColor"/>
</svg>