<svg xmlns="http://www.w3.org/2000/svg" viewBox="0 0 24 24" width="24" height="24">
  <title>figure.walk.diamond</title>
  <path transform="matrix(0.75253567702739, 0, 0, 0.75253567702739, 0.20214180671651083, 18.368823384955846)" d="M3.70-5.87L13.09 3.52C14.82 5.25 16.54 5.26 18.26 3.55L27.69-5.89C29.40-7.61 29.39-9.33 27.66-11.06L18.28-20.44C16.55-22.17 14.84-22.20 13.11-20.47L3.67-11.04C1.95-9.32 1.97-7.61 3.70-5.87ZM5.06-7.17C4.22-8.02 4.21-8.89 5.07-9.76L14.38-19.07C15.25-19.93 16.13-19.92 16.97-19.08L26.30-9.75C27.13-8.92 27.15-8.03 26.29-7.16L16.98 2.14C16.11 3.01 15.21 2.99 14.39 2.17ZM16.27-13.31C17.05-13.31 17.68-13.96 17.68-14.74C17.68-15.53 17.05-16.16 16.27-16.16C15.47-16.16 14.84-15.53 14.84-14.74C14.84-13.96 15.47-13.31 16.27-13.31ZM17.80-1.82C18.21-0.97 19.48-1.49 19.01-2.41L17.64-5.23C17.53-5.43 17.38-5.66 17.25-5.84L16.37-7.10L16.43-7.28C16.68-7.98 16.76-8.40 16.80-9.11L16.95-11.05C17.00-12 16.45-12.70 15.49-12.70C14.79-12.70 14.31-12.34 13.64-11.70L12.60-10.68C12.26-10.34 12.15-10.05 12.12-9.63L12-8.02C11.98-7.62 12.20-7.34 12.56-7.32C12.95-7.29 13.17-7.51 13.21-7.95L13.36-9.71L13.86-10.15C14.04-10.31 14.29-10.22 14.26-10.02L14.16-8.53C14.10-7.79 14.27-7.42 14.79-6.77L16.16-5.05C16.30-4.89 16.31-4.82 16.37-4.70ZM20.17-10.04L18.60-10.04L17.60-11.14L17.48-9.52L17.88-9.12C18.11-8.89 18.30-8.84 18.70-8.84L20.17-8.84C20.57-8.84 20.84-9.06 20.84-9.43C20.84-9.81 20.57-10.04 20.17-10.04ZM12.83-1.62L14.87-4.05C15.07-4.29 15.09-4.35 15.18-4.59L15.33-5.05L14.24-6.43L13.91-4.89L11.89-2.50C11.24-1.73 12.29-0.98 12.83-1.62Z" fill="currentColor"/>
</svg>