<svg xmlns="http://www.w3.org/2000/svg" viewBox="0 0 24 24" width="24" height="24">
  <title>figure.walk.arrival</title>
  <path transform="matrix(0.7473016417713603, 0, 0, 0.7473016417713603, 0.8666887854623182, 18.499019059733314)" d="M2.99 3.68C2.99 4.22 3.43 4.66 3.96 4.66C4.50 4.66 4.95 4.22 4.95 3.68L4.95-21.11C4.95-21.64 4.50-22.08 3.96-22.08C3.43-22.08 2.99-21.64 2.99-21.11ZM18.53-16.92C19.96-16.92 21.11-18.07 21.11-19.50C21.11-20.93 19.96-22.08 18.53-22.08C17.10-22.08 15.95-20.93 15.95-19.50C15.95-18.07 17.10-16.92 18.53-16.92ZM15.74 3.89L18.32-1.32C18.42-1.51 18.45-1.64 18.70-1.96L21.19-5.09C22.13-6.26 22.45-6.90 22.35-8.26L22.14-10.97C22.11-11.30 22.55-11.50 22.88-11.20L23.78-10.38L24.05-7.20C24.12-6.41 24.54-6.01 25.22-6.06C25.90-6.08 26.31-6.61 26.25-7.34L26.03-10.24C25.97-11.04 25.77-11.53 25.15-12.14L23.27-13.99C22.07-15.16 21.20-15.82 19.90-15.82C18.16-15.82 17.17-14.53 17.30-12.84L17.54-9.29C17.63-8.03 17.78-7.25 18.22-5.99L18.33-5.66L16.73-3.39C16.50-3.06 16.23-2.65 16.04-2.26L13.54 2.82C12.70 4.49 14.98 5.44 15.74 3.89ZM11.46-11.00C10.73-11.00 10.22-10.57 10.22-9.91C10.22-9.22 10.72-8.80 11.46-8.80L14.11-8.80C14.84-8.80 15.19-8.92 15.59-9.33L16.35-10.08L16.16-13.07L14.31-11.00ZM24.74 4.25C25.71 5.40 27.61 4.04 26.44 2.66L22.79-1.66L22.17-4.51L20.19-2.03L20.48-1.13C20.64-0.68 20.68-0.56 21.05-0.14Z" fill="currentColor"/>
</svg>