<svg xmlns="http://www.w3.org/2000/svg" viewBox="0 0 24 24" width="24" height="24">
  <title>figure.flexibility</title>
  <path transform="matrix(0.7955864794822586, 0, 0, 0.7955864794822586, -0.37585453169326977, 18.818031003206894)" d="M10.16-15.30C11.58-15.30 12.71-16.45 12.71-17.88C12.71-19.29 11.58-20.43 10.16-20.43C8.75-20.43 7.59-19.29 7.59-17.88C7.59-16.45 8.75-15.30 10.16-15.30ZM27.49 1.03L19.77-3.14L15.30-6.25C14.98-6.47 14.66-6.76 14.40-7.09C14.86-7.37 15.05-7.89 14.92-8.39L14.04-11.95C13.72-13.21 12.59-14.07 11.30-14.07L8.51-14.07C7.65-14.07 7.05-13.86 6.50-13.31L3.33-10.14C2.94-9.75 2.88-9.15 3.15-8.68L5.38-4.78L5.38 2.09C5.38 2.73 5.92 3.28 6.57 3.28C7.23 3.28 7.77 2.73 7.77 2.09L7.77-3.81L14.60-3.32L18.74-0.97L26.37 3.13C27.07 3.50 27.75 3.15 28.00 2.66C28.29 2.07 28.07 1.34 27.49 1.03ZM5.68-9.08L7.75-11.16L9.35-7.02L8.09-6.29L7.28-6.29Z" fill="currentColor"/>
</svg>