<svg xmlns="http://www.w3.org/2000/svg" viewBox="0 0 24 24" width="24" height="24">
  <title>figure.strengthtraining.functional</title>
  <path transform="matrix(0.7872375033380216, 0, 0, 0.7872375033380216, 1.6799579032907004, 18.70727092045106)" d="M14.16-16.10C15.55-16.10 16.70-17.25 16.70-18.68C16.70-20.07 15.55-21.22 14.16-21.22C12.73-21.22 11.58-20.07 11.58-18.68C11.58-17.25 12.73-16.10 14.16-16.10ZM10.84 2.41C11.30 2.29 11.58 2.14 11.77 1.79L14.34-2.85C14.39-2.93 14.43-2.96 14.53-2.96L20.84-2.96L20.84 2.98C20.84 3.66 21.38 4.17 22.02 4.17C22.70 4.17 23.23 3.66 23.23 2.98L23.23-4.02C23.23-4.80 22.80-5.27 21.98-5.34L16.68-5.82L16.68-12.49C16.68-13.79 15.76-14.87 14.16-14.87L13.59-14.87C12.64-14.87 11.92-14.71 10.98-14.00L7.04-11.05C6.36-10.56 6.41-9.56 7.10-9.11L11.92-5.91L11.92-5.60L9.82 0.21L3.87 1.85C3.23 2.03 2.86 2.67 3.04 3.30C3.22 3.97 3.82 4.31 4.50 4.14ZM9.82-10.16L11.60-11.50C11.74-11.59 11.92-11.52 11.92-11.34L11.92-8.77Z" fill="currentColor"/>
</svg>