<svg xmlns="http://www.w3.org/2000/svg" viewBox="0 0 24 24" width="24" height="24">
  <title>figure.walk</title>
  <path transform="matrix(0.7473016417713603, 0, 0, 0.7473016417713603, 3.5709584188786616, 18.499019059733314)" d="M11.27-16.92C12.70-16.92 13.85-18.07 13.85-19.50C13.85-20.93 12.70-22.08 11.27-22.08C9.84-22.08 8.70-20.93 8.70-19.50C8.70-18.07 9.84-16.92 11.27-16.92ZM14.06 3.89C14.81 5.44 17.09 4.49 16.27 2.82L13.76-2.26C13.57-2.65 13.29-3.06 13.07-3.39L11.46-5.66L11.58-5.99C12.02-7.25 12.16-8.03 12.26-9.29L12.50-12.84C12.63-14.53 11.64-15.82 9.90-15.82C8.60-15.82 7.72-15.16 6.53-13.99L4.65-12.14C4.03-11.53 3.83-11.04 3.77-10.24L3.55-7.34C3.49-6.61 3.90-6.08 4.58-6.06C5.26-6.01 5.67-6.41 5.75-7.20L6.02-10.38L6.93-11.20C7.25-11.50 7.69-11.30 7.66-10.97L7.45-8.26C7.35-6.90 7.68-6.26 8.61-5.09L11.10-1.96C11.36-1.64 11.38-1.51 11.48-1.32ZM18.34-11.00L15.49-11.00L13.64-13.07L13.45-10.08L14.21-9.33C14.61-8.92 14.96-8.80 15.69-8.80L18.34-8.80C19.08-8.80 19.57-9.22 19.57-9.91C19.57-10.57 19.07-11.00 18.34-11.00ZM5.06 4.25L8.75-0.14C9.12-0.56 9.16-0.68 9.32-1.13L9.61-2.03L7.63-4.51L7.01-1.66L3.36 2.66C2.18 4.04 4.09 5.40 5.06 4.25Z" fill="currentColor"/>
</svg>