<svg xmlns="http://www.w3.org/2000/svg" viewBox="0 0 24 24" width="24" height="24">
  <title>figure.pilates</title>
  <path transform="matrix(0.6245585097670163, 0, 0, 0.6245585097670163, 0.13364351573528332, 17.280690993713698)" d="M8.34-3.04C7.89-1.86 8.33-0.66 9.30 0.02C10.89 1.13 12.36 1.54 14.72 1.54L18.46 1.54C21.34 1.54 22.11-0.73 21.13-2.63L18.12-8.44L18.12-17.23C18.12-17.92 17.58-18.45 16.88-18.45C16.20-18.45 15.68-17.92 15.68-17.23L15.68-8.14C15.68-7.98 15.69-7.85 15.73-7.73L17.43-2.87L15.22-2.87C13.80-2.87 12.98-3.27 11.87-3.94C11.58-4.11 11.50-4.38 11.63-4.72L14.36-11.71C14.60-12.33 14.29-13.05 13.65-13.29C13.00-13.54 12.32-13.23 12.07-12.59ZM5.55-3.86C6.96-3.86 8.11-4.99 8.11-6.41C8.11-7.83 6.96-8.98 5.55-8.98C4.14-8.98 2.99-7.83 2.99-6.41C2.99-4.99 4.14-3.86 5.55-3.86ZM22.73-0.36L27.07-1.78L34.00-3.04C34.66-3.15 35.11-3.76 34.99-4.45C34.86-5.12 34.23-5.55 33.56-5.44L26.32-4.13L22.14-3.36L22.23-3.20C22.79-2.26 22.89-1.23 22.73-0.36Z" fill="currentColor"/>
</svg>