<svg xmlns="http://www.w3.org/2000/svg" viewBox="0 0 24 24" width="24" height="24">
  <title>figure.gymnastics</title>
  <path transform="matrix(0.7969153408062084, 0, 0, 0.7969153408062084, -0.3842173471670569, 18.783616778184133)" d="M15.60-14.06C17.00-14.06 18.15-15.21 18.15-16.64C18.15-18.05 17.00-19.18 15.60-19.18C14.17-19.18 13.03-18.05 13.03-16.64C13.03-15.21 14.17-14.06 15.60-14.06ZM4.70-3.22L10.58-2.73C11.64-2.64 11.86-2.57 12.87-2.29L20.04-0.27L26.48 2.09C27.05 2.29 27.81 2.09 28.03 1.37C28.22 0.75 27.94 0.07 27.32-0.15L20.88-2.50C20.78-2.53 20.57-2.61 20.48-2.65L15.48-4.45C16.15-5.73 17.05-7.78 17.29-10.01C17.31-10.27 17.47-10.39 17.71-10.39L26.31-10.39C26.98-10.39 27.49-10.93 27.49-11.59C27.49-12.26 26.98-12.79 26.31-12.79L16.88-12.79C15.29-12.79 15.15-12.80 13.43-13.27L4.51-15.74C3.87-15.91 3.22-15.54 3.04-14.91C2.86-14.26 3.23-13.61 3.87-13.43L12.19-11.13C12.40-11.07 12.54-10.91 12.52-10.66C12.25-8.57 11.23-6.54 10.69-5.61L5.99-5.61L5.99-10.39C5.99-11.05 5.43-11.59 4.78-11.59C4.13-11.59 3.59-11.05 3.59-10.39L3.59-4.43C3.59-3.73 3.90-3.30 4.70-3.22Z" fill="currentColor"/>
</svg>