<svg xmlns="http://www.w3.org/2000/svg" viewBox="0 0 24 24" width="24" height="24">
  <title>figure.martial.arts</title>
  <path transform="matrix(0.7167810993101165, 0, 0, 0.7167810993101165, 2.3534775215532933, 18.11917495597008)" d="M11.38-17.37C12.79-17.37 13.92-18.52 13.92-19.95C13.92-21.35 12.79-22.49 11.38-22.49C9.95-22.49 8.80-21.35 8.80-19.95C8.80-18.52 9.95-17.37 11.38-17.37ZM16.75 5.41C17.43 5.41 17.95 4.88 17.95 4.22L17.95-2.44C17.95-2.72 17.80-3.12 17.43-3.36L13.15-6.21L13.15-13.45C13.15-13.61 13.28-13.75 13.44-13.75L22.73-13.75C23.40-13.75 23.93-14.29 23.93-14.94C23.93-15.60 23.40-16.14 22.73-16.14L9.52-16.14C8.39-16.14 7.78-15.74 7.21-15.02L4.09-11.19C3.34-10.28 3.95-8.95 4.92-8.95L8.37-8.95L8.37-7.30C8.37-6.21 8.98-5.19 9.96-4.66L15.55-1.65L15.55 4.22C15.55 4.88 16.09 5.41 16.75 5.41ZM7.15-11.27L8.44-12.88L8.44-11.27ZM3.27 5.00C3.73 5.52 4.48 5.54 4.98 5.11L9.68 1.00C9.91 0.79 10.01 0.69 10.09 0.47L11.34-2.65L9.42-3.68C9.23-3.79 9.05-3.90 8.87-4.03L7.92-0.64L3.39 3.32C2.91 3.74 2.85 4.52 3.27 5.00Z" fill="currentColor"/>
</svg>