<svg xmlns="http://www.w3.org/2000/svg" viewBox="0 0 24 24" width="24" height="24">
  <title>figure.yoga</title>
  <path transform="matrix(0.768076807680768, 0, 0, 0.768076807680768, 0.40914398069729474, 18.498649864986497)" d="M19.45-16.36C20.87-16.36 22.00-17.50 22.00-18.93C22.00-20.34 20.87-21.48 19.45-21.48C18.02-21.48 16.88-20.34 16.88-18.93C16.88-17.50 18.02-16.36 19.45-16.36ZM11.47 4.56C12.13 4.56 12.69 4.02 12.69 3.35L12.69-7.65C15.36-8.09 17.68-9.86 18.80-12.27C18.89-12.52 19.17-12.63 19.64-12.47L25.57-10.48C26.39-10.21 26.95-10.65 27.13-11.23C27.32-11.81 27.11-12.53 26.34-12.77L8.58-18.70C7.76-18.98 7.18-18.53 7.01-17.95C6.82-17.37 7.04-16.66 7.80-16.41L14.19-14.27C14.48-14.17 14.64-13.82 14.45-13.51C13.77-12.45 12.76-11.80 11.47-11.80L5.41-11.80L5.41-17.88C5.41-18.60 4.93-19.09 4.20-19.09C3.47-19.09 2.99-18.60 2.99-17.88L2.99-10.69C2.99-9.89 3.39-9.52 4.00-9.41L9.36-8.52L10.27-3.22L10.27 3.35C10.27 4.02 10.80 4.56 11.47 4.56Z" fill="currentColor"/>
</svg>