<svg xmlns="http://www.w3.org/2000/svg" viewBox="0 0 24 24" width="24" height="24">
  <title>figure.elliptical</title>
  <path transform="matrix(0.7020430549842315, 0, 0, 0.7020430549842315, 4.373368956764811, 17.944055944055947)" d="M8.87-17.59C10.28-17.59 11.44-18.75 11.44-20.16C11.44-21.55 10.28-22.71 8.87-22.71C7.46-22.71 6.32-21.55 6.32-20.16C6.32-18.75 7.46-17.59 8.87-17.59ZM14.96 1.01C15.46 0.77 15.77 0.20 15.46-0.60L13.39-5.77C13.34-5.93 13.22-6.06 12.96-6.25L9.19-9.04L9.47-13.20C9.48-13.43 9.66-13.50 9.88-13.43L12.33-12.60C12.56-12.53 12.86-12.49 13.11-12.53L17.66-13.03C19.28-13.22 18.98-15.57 17.39-15.40L12.98-14.89L8.50-16.38C6.86-16.93 5.44-16.01 5.30-14.37L4.97-10.27C4.86-9.04 5.51-7.84 6.56-7.23L11.36-4.45L13.25 0.28C13.58 1.11 14.40 1.29 14.96 1.01ZM13.08 4.71L17.67 3.19C18.01 3.07 18.19 2.84 18.19 2.44L18.19-11.99C18.05-11.95 17.89-11.92 17.73-11.89L16.89-11.80L16.89 2.07L12.69 3.47C12.23 3.63 12.12 4.03 12.25 4.35C12.34 4.63 12.66 4.85 13.08 4.71ZM4.00 3.12C4.48 3.34 5.09 3.27 5.51 2.65L8.61-1.98C8.71-2.13 8.79-2.34 8.80-2.60L8.93-4.69L6.27-6.23L6.42-2.96L3.56 1.32C3.06 2.10 3.42 2.85 4.00 3.12ZM3.63 5.78L8.44 5.78C8.80 5.78 9.11 5.47 9.11 5.12C9.11 4.76 8.80 4.48 8.44 4.48L3.63 4.48C3.27 4.48 2.99 4.76 2.99 5.12C2.99 5.47 3.27 5.78 3.63 5.78Z" fill="currentColor"/>
</svg>