<svg xmlns="http://www.w3.org/2000/svg" viewBox="0 0 24 24" width="24" height="24">
  <title>figure.cooldown</title>
  <path transform="matrix(0.7052341597796143, 0, 0, 0.7052341597796143, 2.665289256198347, 18.016528925619834)" d="M14.30-1.59L17.93-6.59L20.23-2.39C21 1.21 21.09 3.96 21.09 4.38C21.09 5.11 21.63 5.65 22.29 5.65C22.97 5.65 23.48 5.11 23.48 4.42C23.48 4.30 23.43 1.16 22.57-3.06L22.52-3.27C21.54-8.11 18.46-17.06 10.50-22.35C10.10-22.59 9.75-22.71 9.34-22.71L4.18-22.71C3.53-22.71 2.99-22.17 2.99-21.52C2.99-20.82 3.53-20.29 4.18-20.29L9.25-20.29C10.50-19.42 11.59-18.48 12.59-17.47C12.73-17.34 12.74-17.13 12.64-16.98L8.59-10.05C8.10-9.19 8.70-8.24 9.63-8.24L15.16-8.24L12.26-2.89L12.14-2.68L8.57 3.86C8.24 4.44 8.45 5.19 9.04 5.50C9.59 5.79 10.34 5.66 10.69 5.02ZM7.91-13.86C9.32-13.86 10.45-15 10.45-16.43C10.45-17.84 9.32-18.97 7.91-18.97C6.49-18.97 5.34-17.84 5.34-16.43C5.34-15 6.49-13.86 7.91-13.86ZM11.72-10.64L12.62-12.18C12.76-12.45 13.04-12.39 13.16-12.21L14.21-10.64Z" fill="currentColor"/>
</svg>