<svg xmlns="http://www.w3.org/2000/svg" viewBox="0 0 24 24" width="24" height="24">
  <title>figure.rolling</title>
  <path transform="matrix(0.7432773925523338, 0, 0, 0.7432773925523338, -0.21992923907425954, 18.29317870452025)" d="M25.15-12.46C26.57-12.46 27.70-13.59 27.70-15.01C27.70-16.43 26.57-17.58 25.15-17.58C23.73-17.58 22.58-16.43 22.58-15.01C22.58-13.59 23.73-12.46 25.15-12.46ZM4.56-0.43L11.45-2.16L11.45-0.54C11.45 0.12 11.99 0.64 12.63 0.64C13.29 0.64 13.83 0.12 13.83-0.54L13.83-2.59L18.83-3.34C19.76-3.47 20.66-3.88 21.42-4.45L25.76-7.70C25.92-7.82 26.16-7.79 26.24-7.59L27.52-5.02L27.52-0.54C27.52 0.15 28.01 0.64 28.71 0.64C29.41 0.64 29.89 0.15 29.89-0.54L29.89-5.30C29.89-5.48 29.86-5.68 29.77-5.85L27.71-9.94C27.30-10.76 26.51-11.26 25.59-11.26L24.54-11.26C23.52-11.26 22.51-10.92 21.69-10.30L18.29-7.77L13.30-8.77C12.26-8.98 11.45-8.52 11.45-7.42L11.45-4.62L3.98-2.72C3.21-2.53 2.92-1.93 3-1.38C3.11-0.76 3.68-0.21 4.56-0.43ZM13.83-5.19L13.83-6.09L15.46-5.59ZM19.48 0.64L24.23 0.64C25.22 0.64 26.02-0.15 26.02-1.15C26.02-2.12 25.22-2.93 24.23-2.93L19.48-2.93C18.48-2.93 17.70-2.12 17.70-1.15C17.70-0.15 18.48 0.64 19.48 0.64ZM24.23-0.20C23.72-0.20 23.30-0.63 23.30-1.16C23.30-1.66 23.72-2.09 24.23-2.09C24.76-2.09 25.17-1.66 25.17-1.16C25.17-0.63 24.76-0.20 24.23-0.20Z" fill="currentColor"/>
</svg>