<svg xmlns="http://www.w3.org/2000/svg" viewBox="0 0 24 24" width="24" height="24">
  <title>figure</title>
  <path transform="matrix(0.7739984882842026, 0, 0, 0.7739984882842026, 1.8095238095238093, 18.56235827664399)" d="M13.16-16.30C14.58-16.30 15.71-17.44 15.71-18.84C15.71-20.26 14.58-21.40 13.16-21.40C11.74-21.40 10.61-20.26 10.61-18.84C10.61-17.44 11.74-16.30 13.16-16.30ZM13.16-5.30C13.65-5.30 13.86-4.99 14.12-4.13C14.50-2.96 15.74 1.96 16.09 3.41C16.25 4.14 16.65 4.44 17.20 4.44C17.95 4.44 18.40 3.76 18.20 3.02C18.12 2.71 16.41-4.39 16.18-5.86C15.96-7.36 15.95-10.63 15.95-11.64C15.95-12.34 16.28-12.79 16.85-12.91C17.40-13.04 21.88-13.52 22.49-13.72C22.99-13.88 23.34-14.29 23.34-14.82C23.34-15.50 22.83-15.91 22.35-15.91C22.15-15.91 21.96-15.87 21.75-15.82C19.92-15.49 15.97-15.07 13.16-15.07C10.37-15.07 6.40-15.47 4.57-15.82C4.37-15.87 4.17-15.91 3.98-15.91C3.48-15.91 2.99-15.50 2.99-14.82C2.99-14.29 3.32-13.83 3.83-13.72C4.48-13.58 8.92-13.02 9.47-12.91C10.04-12.81 10.38-12.34 10.39-11.64C10.41-10.63 10.37-7.36 10.14-5.86C9.90-4.39 8.20 2.71 8.12 3.02C7.91 3.76 8.37 4.44 9.12 4.44C9.67 4.44 10.04 4.14 10.24 3.41C10.64 1.97 11.82-2.94 12.22-4.13C12.49-4.97 12.68-5.30 13.16-5.30Z" fill="currentColor"/>
</svg>