<svg xmlns="http://www.w3.org/2000/svg" viewBox="0 0 24 24" width="24" height="24">
  <title>figure.mixed.cardio</title>
  <path transform="matrix(0.7484840079163301, 0, 0, 0.7484840079163301, 1.6693527220894073, 18.402325329728953)" d="M13.80-16.90C15.18-16.90 16.29-18.02 16.29-19.42C16.29-20.79 15.18-21.91 13.80-21.91C12.41-21.91 11.29-20.79 11.29-19.42C11.29-18.02 12.41-16.90 13.80-16.90ZM13.80-6.16L16.63-1.73L18.74 4.08C18.97 4.72 19.59 4.93 20.12 4.73C20.68 4.55 20.98 3.90 20.77 3.35L18.63-2.52L16.51-8.34L16.51-13.63C16.51-13.88 16.64-14.10 16.86-14.21L24.05-18.05C24.57-18.33 24.77-18.97 24.49-19.51C24.21-20.04 23.57-20.23 23.04-19.95L16.10-16.28C15.33-15.87 14.57-15.68 13.80-15.68C13.04-15.68 12.28-15.87 11.51-16.28L4.57-19.95C4.04-20.23 3.40-20.04 3.12-19.51C2.82-18.97 3.04-18.33 3.56-18.05L10.75-14.21C10.97-14.10 11.10-13.88 11.10-13.63L11.10-8.34L8.98-2.52L6.84 3.35C6.63 3.90 6.93 4.55 7.48 4.73C8.02 4.93 8.64 4.72 8.87 4.08L10.98-1.73Z" fill="currentColor"/>
</svg>