<svg xmlns="http://www.w3.org/2000/svg" viewBox="0 0 24 24" width="24" height="24">
  <title>figure.stair.stepper</title>
  <path transform="matrix(0.6951799049558723, 0, 0, 0.6951799049558723, 3.2038951274614496, 17.877800407331975)" d="M9.86-17.72C11.26-17.72 12.42-18.87 12.42-20.27C12.42-21.68 11.26-22.84 9.86-22.84C8.45-22.84 7.30-21.68 7.30-20.27C7.30-18.87 8.45-17.72 9.86-17.72ZM11.63 0.16C12.16 0.26 12.75 0 12.96-0.71L14.54-6.01C14.75-6.74 14.45-7.36 13.77-7.61L9.67-9.08L10.28-13.32C10.31-13.56 10.50-13.63 10.72-13.54L12.79-12.60C13.05-12.47 13.27-12.43 13.62-12.40L18.80-11.87C19.45-11.80 20.04-12.27 20.09-12.91C20.14-13.55 19.68-14.13 19.03-14.19L13.75-14.71L9.75-16.55C8.04-17.32 6.27-16.45 6.05-14.74L5.39-9.75C5.20-8.29 6.12-6.96 7.55-6.62L12-5.60L10.71-1.38C10.45-0.53 11.00 0.06 11.63 0.16ZM22.25-15.41C22.08-15.76 21.70-15.89 21.36-15.73C20.81-15.46 20.41-15.25 20.02-15.04C20.44-14.81 20.78-14.46 20.98-14.04C21.25-14.19 21.53-14.33 21.95-14.55C22.28-14.72 22.41-15.09 22.25-15.41ZM6.36 5.93L10.72 5.93C11.09 5.93 11.38 5.65 11.38 5.29L11.38 3.18L15.09 3.18C15.45 3.18 15.74 2.87 15.74 2.51L15.74 0.40L18.14 0.40C18.49 0.40 18.79 0.12 18.80-0.25L19.21-10.79C19.09-10.79 19.02-10.78 18.93-10.78C18.59-10.76 18.22-10.79 17.91-10.84L17.51-0.91L15.09-0.91C14.72-0.91 14.44-0.64 14.44-0.27L14.44 1.86L10.72 1.86C10.36 1.86 10.08 2.14 10.08 2.51L10.08 4.63L6.36 4.63C6 4.63 5.70 4.93 5.70 5.29C5.70 5.64 6.01 5.93 6.36 5.93ZM3.56 3.86C4.05 4.13 4.75 4.05 5.19 3.39L8.37-1.36C8.50-1.55 8.57-1.77 8.61-2.05L9.11-5.09L7.31-5.50C7.03-5.55 6.76-5.65 6.49-5.78L6.27-2.43L3.26 2.09C2.74 2.87 3.04 3.56 3.56 3.86Z" fill="currentColor"/>
</svg>