<svg xmlns="http://www.w3.org/2000/svg" viewBox="0 0 24 24" width="24" height="24">
  <title>figure.indoor.rowing</title>
  <path transform="matrix(0.9116809116809117, 0, 0, 0.9116809116809117, -0.7243589743589745, 19.719017094017094)" d="M10.22-13.82C11.65-13.82 12.79-14.96 12.79-16.38C12.79-17.80 11.65-18.94 10.22-18.94C8.80-18.94 7.66-17.80 7.66-16.38C7.66-14.96 8.80-13.82 10.22-13.82ZM4.02-4.91C3.50-2.98 4.73-1.75 6.25-1.75C6.73-1.75 7.23-1.86 7.72-2.13L14.09-5.52L21.13-1.99C21.98-1.57 22.68-1.91 22.95-2.46C23.20-3 23.04-3.74 22.22-4.15L14.85-7.85C14.37-8.10 13.84-8.12 13.34-7.90L8.58-5.84L9.54-9.19C9.71-9.76 10.24-10.18 10.85-10.18L20.33-10.18C21-10.18 21.54-10.72 21.54-11.39C21.54-12.05 21-12.60 20.33-12.60L9.97-12.60C7.63-12.60 5.72-11.25 5.18-9.22ZM3.64 2.00L24.27 2.00C24.63 2.00 24.93 1.72 24.93 1.36C24.93 1.00 24.63 0.70 24.27 0.70L3.64 0.70C3.27 0.70 2.99 1.00 2.99 1.36C2.99 1.72 3.27 2.00 3.64 2.00Z" fill="currentColor"/>
</svg>