<svg xmlns="http://www.w3.org/2000/svg" viewBox="0 0 24 24" width="24" height="24">
  <title>figure.run</title>
  <path transform="matrix(0.7781919038936269, 0, 0, 0.7781919038936269, 2.043923417498342, 18.64297138210003)" d="M15.23-16.28C16.65-16.28 17.79-17.41 17.79-18.83C17.79-20.25 16.65-21.39 15.23-21.39C13.82-21.39 12.68-20.25 12.68-18.83C12.68-17.41 13.82-16.28 15.23-16.28ZM11.23-6.08L15.71-3.56L12.82-1.08C12.20-0.55 12.21 0.14 12.59 0.56C12.97 1.00 13.66 1.10 14.31 0.55L18.35-2.89C18.90-3.36 18.82-4.37 18.15-4.80L13.76-7.69L14.63-10.72C14.74-11.16 15.25-11.21 15.50-10.84L16.79-8.95C17.10-8.52 17.65-8.34 18.15-8.58L21.87-10.23C22.52-10.52 22.77-11.10 22.49-11.70C22.20-12.28 21.63-12.46 20.98-12.16L18.04-10.86L16.01-13.66C14.95-15.12 13.64-15.71 11.48-15.55L7.37-15.26C6.71-15.21 6.27-14.79 6.18-14.11L5.63-9.94C5.52-9.21 5.88-8.71 6.53-8.64C7.18-8.58 7.61-8.95 7.70-9.68L8.20-13.09L9.86-13.21C10.22-13.24 10.58-12.98 10.45-12.53L9.49-9.18C8.93-7.20 10.22-6.66 11.23-6.08ZM3.39 4.04C3.82 4.41 4.49 4.45 5.09 3.88L8.88 0.12C9.20-0.20 9.27-0.27 9.47-0.76L11.06-4.89L10.68-5.10C9.79-5.58 9.16-6.07 8.74-6.60L7.35-1.66L3.41 2.26C2.79 2.87 2.91 3.62 3.39 4.04Z" fill="currentColor"/>
</svg>