<svg xmlns="http://www.w3.org/2000/svg" viewBox="0 0 24 24" width="24" height="24">
  <title>figure.fall</title>
  <path transform="matrix(0.8822448139126332, 0, 0, 0.8822448139126332, -0.6383491661895233, 19.48677771285339)" d="M3.02-8.85L3.70-4.65C3.97-3.11 6.08-3.42 5.84-4.96L5.24-8.58L7.62-9.50C7.98-9.64 8.30-9.60 8.45-9.26L10.64-4.92C11.30-3.62 11.84-3.22 12.38-2.84L19.44 2.36C20.68 3.27 22.17 1.46 20.78 0.43L15.28-3.60C15.01-3.80 15.04-4.16 15.33-4.32L19.07-6.48L23.96-4.14C25.37-3.48 26.48-5.44 24.84-6.22L19.62-8.71C18.97-9.01 18.38-8.92 17.86-8.61L15.40-7.17C15.07-6.98 14.84-7.08 14.72-7.32L12.74-11.36C12.55-11.73 12.60-12.09 13.01-12.29L14.81-13.11C15.41-13.39 15.63-13.59 15.80-14.17L16.95-18.14C17.37-19.64 15.35-20.19 14.92-18.69L13.80-14.80L3.82-10.41C3.14-10.11 2.89-9.60 3.02-8.85ZM7.59-13.77C9.01-13.77 10.15-14.91 10.15-16.32C10.15-17.73 9.01-18.88 7.59-18.88C6.18-18.88 5.04-17.73 5.04-16.32C5.04-14.91 6.18-13.77 7.59-13.77Z" fill="currentColor"/>
</svg>