<svg xmlns="http://www.w3.org/2000/svg" viewBox="0 0 24 24" width="24" height="24">
  <title>figure.boxing</title>
  <path transform="matrix(0.7111111111111111, 0, 0, 0.7111111111111111, 1.695724708691431, 18.025000000000002)" d="M13.89-17.43C15.29-17.43 16.43-18.56 16.43-19.99C16.43-21.40 15.29-22.54 13.89-22.54C12.46-22.54 11.32-21.40 11.32-19.99C11.32-18.56 12.46-17.43 13.89-17.43ZM3.41 5.29C3.90 5.71 4.66 5.68 5.12 5.17L9.29 0.40C9.52 0.14 9.64-0.14 9.68-0.47L10.21-5.60C10.22-5.78 10.41-5.85 10.52-5.71L13.89-1.83L13.89 4.37C13.89 5.04 14.43 5.59 15.11 5.59C15.76 5.59 16.32 5.04 16.32 4.37L16.32-2.23C16.32-2.55 16.22-2.78 16.07-3L12.50-8.20L14.24-13.38C14.33-13.66 14.52-13.77 14.80-13.77L22.43-13.77C22.69-13.05 23.37-12.54 24.18-12.54C25.17-12.54 25.99-13.36 25.99-14.38C25.99-15.38 25.17-16.20 24.18-16.20L10.05-16.20C9.07-16.20 8.27-15.91 7.48-15.13L5.17-12.80C4.39-12.01 4.82-10.73 5.88-10.73L8.06-10.73L7.59-9.34C7.35-8.59 7.23-7.82 7.23-7.05L7.23-0.91L3.29 3.57C2.85 4.08 2.89 4.84 3.41 5.29Z" fill="currentColor"/>
</svg>