<svg xmlns="http://www.w3.org/2000/svg" viewBox="0 0 24 24" width="24" height="24">
  <title>figure.dance</title>
  <path transform="matrix(0.6948968512486428, 0, 0, 0.6948968512486428, 4.7004753891991236, 18.140065146579804)" d="M4.70 5.55C5.38 5.55 5.88 5.04 5.88 4.41L5.88-1.21L9.16-4.70C9.22-4.76 9.33-4.76 9.39-4.69L12.53-0.48L15.20 4.83C15.94 6.32 18.02 5.25 17.31 3.83L11.82-7.16C11.33-8.14 11.09-9.47 10.97-10.82C10.93-11.25 11.21-11.46 11.59-11.27L13.76-10.17L15.76-6.16C16.48-4.75 18.62-5.71 17.86-7.22L15.68-11.57C15.56-11.80 15.39-11.98 15.15-12.09L12.04-13.65C11.11-14.12 10.16-14.30 9.28-14.52C8.27-14.77 7.37-15.08 6.76-15.95L5.34-18.01L5.34-22.07C5.34-22.70 4.80-23.23 4.16-23.23C3.52-23.23 2.99-22.70 2.99-22.07L2.99-17.64C2.99-17.38 3.05-17.20 3.20-16.98L5.68-13.39C5.91-13.07 6.05-12.86 6.09-12.30C6.19-11.00 6.47-8.59 7.00-6.84L3.76-2.36C3.61-2.12 3.55-1.90 3.55-1.68L3.55 4.41C3.55 5.04 4.05 5.55 4.70 5.55ZM10.09-15.79C11.50-15.79 12.63-16.92 12.63-18.35C12.63-19.76 11.50-20.89 10.09-20.89C8.66-20.89 7.52-19.76 7.52-18.35C7.52-16.92 8.66-15.79 10.09-15.79Z" fill="currentColor"/>
</svg>