<svg xmlns="http://www.w3.org/2000/svg" viewBox="0 0 24 24" width="24" height="24">
  <title>figure.taichi</title>
  <path transform="matrix(0.718734400846491, 0, 0, 0.718734400846491, 2.6919196019769163, 18.095720000206768)" d="M12.12-17.27C13.51-17.27 14.67-18.42 14.67-19.83C14.67-21.23 13.51-22.39 12.12-22.39C10.71-22.39 9.55-21.23 9.55-19.83C9.55-18.42 10.71-17.27 12.12-17.27ZM4.21-13.83L8.02-13.83C8.19-13.83 8.34-13.69 8.32-13.51L7.96-8.57C7.83-6.80 8.86-5.70 10.36-5.39L15.26-4.36L16.31 0.89C16.45 1.61 17.18 1.95 17.72 1.84C18.38 1.71 18.80 1.07 18.67 0.41L17.47-5.63C17.38-6.09 16.98-6.42 16.54-6.57L12.75-7.76L13.08-12.33C13.11-12.68 13.44-12.81 13.71-12.59L15.50-11.10C15.73-10.92 15.98-10.82 16.28-10.82L21.71-10.82C22.38-10.82 22.91-11.36 22.91-12.02C22.91-12.69 22.38-13.22 21.71-13.22L16.71-13.22L14.10-15.40C13.44-15.94 12.84-16.24 11.91-16.24L5.84-16.24L7.18-20.72C7.37-21.36 7.01-22.04 6.38-22.23C5.73-22.42 5.04-22.05 4.85-21.41L3.06-15.39C2.82-14.59 3.20-13.83 4.21-13.83ZM9.30 5.38C9.88 5.55 10.59 5.30 10.82 4.58L12.61-1.41C12.66-1.57 12.67-1.75 12.67-1.93L12.67-3.75L10.14-4.29C10.08-4.30 10.03-4.30 9.98-4.31L10.24-1.93L8.50 3.89C8.31 4.51 8.67 5.19 9.30 5.38Z" fill="currentColor"/>
</svg>