<svg xmlns="http://www.w3.org/2000/svg" viewBox="0 0 24 24" width="24" height="24">
  <title>figure.handball</title>
  <path transform="matrix(0.6192549588776004, 0, 0, 0.6192549588776004, 0.14949201741654572, 17.31585805571713)" d="M15.09-17.43C16.09-17.43 16.89-18.21 16.89-19.22C16.89-20.21 16.09-21.02 15.09-21.02C14.10-21.02 13.29-20.21 13.29-19.22C13.29-18.21 14.10-17.43 15.09-17.43ZM21.77-14.10C23.18-14.10 24.33-15.25 24.33-16.68C24.33-18.08 23.18-19.22 21.77-19.22C20.34-19.22 19.21-18.08 19.21-16.68C19.21-15.25 20.34-14.10 21.77-14.10ZM4.17-1.45L10.58-1.45C10.93-1.45 11.09-1.49 11.34-1.55L17.84-3.12C17.94-3.14 18.04-3.05 18.02-2.94L17.59 0.60L15.05-1.22C14.51-1.61 13.76-1.48 13.38-0.94C12.98-0.40 13.10 0.35 13.64 0.74L17.57 3.50C18.43 4.11 19.49 3.91 19.71 3.02L22.95-9.95C22.99-10.10 23.14-10.20 23.30-10.16L33.87-8.06C34.77-7.88 35.29-8.55 35.29-9.22C35.29-9.74 34.99-10.27 34.34-10.39L23.92-12.49C20.82-13.10 18.90-13.39 16.70-13.39L13.76-13.39L13.76-16.39C13.76-17.07 13.22-17.59 12.56-17.59C11.88-17.59 11.36-17.07 11.36-16.39L11.36-12.21C11.36-11.55 11.88-11.02 12.56-11.02L17.51-11.02C17.73-11.02 17.88-10.82 17.82-10.61L16.86-6.90C16.71-6.30 16.30-5.85 15.71-5.64L10.56-3.84L4.17-3.84C3.50-3.84 2.99-3.30 2.99-2.64C2.99-1.97 3.50-1.45 4.17-1.45Z" fill="currentColor"/>
</svg>