<svg xmlns="http://www.w3.org/2000/svg" viewBox="0 0 24 24" width="24" height="24">
  <title>figure.walk.departure</title>
  <path transform="matrix(0.7473016417713603, 0, 0, 0.7473016417713603, 0.8692923434601694, 18.499019059733314)" d="M2.99 3.68C2.99 4.22 3.43 4.66 3.96 4.66C4.50 4.66 4.95 4.22 4.95 3.68L4.95-21.11C4.95-21.64 4.50-22.08 3.96-22.08C3.43-22.08 2.99-21.64 2.99-21.11ZM18.50-16.92C19.93-16.92 21.08-18.07 21.08-19.50C21.08-20.93 19.93-22.08 18.50-22.08C17.07-22.08 15.93-20.93 15.93-19.50C15.93-18.07 17.07-16.92 18.50-16.92ZM21.29 3.89C22.05 5.44 24.33 4.49 23.50 2.82L20.99-2.26C20.80-2.65 20.52-3.06 20.30-3.39L18.69-5.66L18.81-5.99C19.25-7.25 19.41-8.03 19.49-9.29L19.73-12.84C19.86-14.53 18.87-15.82 17.13-15.82C15.83-15.82 14.95-15.16 13.76-13.99L11.88-12.14C11.26-11.53 11.06-11.04 11.00-10.24L10.78-7.34C10.72-6.61 11.13-6.08 11.81-6.06C12.49-6.01 12.90-6.41 12.98-7.20L13.25-10.38L14.16-11.20C14.48-11.50 14.92-11.30 14.89-10.97L14.68-8.26C14.58-6.90 14.91-6.26 15.84-5.09L18.33-1.96C18.59-1.64 18.61-1.51 18.71-1.32ZM25.57-11.00L22.72-11.00L20.87-13.07L20.68-10.08L21.45-9.33C21.84-8.92 22.20-8.80 22.92-8.80L25.57-8.80C26.31-8.80 26.80-9.22 26.80-9.91C26.80-10.57 26.30-11.00 25.57-11.00ZM12.29 4.25L15.98-0.14C16.35-0.56 16.39-0.68 16.55-1.13L16.84-2.03L14.86-4.51L14.24-1.66L10.59 2.66C9.42 4.04 11.32 5.40 12.29 4.25Z" fill="currentColor"/>
</svg>