<svg xmlns="http://www.w3.org/2000/svg" viewBox="0 0 24 24" width="24" height="24">
  <title>figure.walk.motion</title>
  <path transform="matrix(0.6985946240960568, 0, 0, 0.6985946240960568, -0.08759721653704444, 18.075431289386337)" d="M23.32-16.92C24.75-16.92 25.90-18.07 25.90-19.50C25.90-20.93 24.75-22.08 23.32-22.08C21.89-22.08 20.74-20.93 20.74-19.50C20.74-18.07 21.89-16.92 23.32-16.92ZM7.91-17.31L14.67-17.31C15.08-17.31 15.41-17.65 15.41-18.07C15.41-18.49 15.08-18.84 14.67-18.84L7.91-18.84C7.49-18.84 7.17-18.49 7.17-18.07C7.17-17.65 7.49-17.31 7.91-17.31ZM26.11 3.89C26.86 5.44 29.13 4.49 28.31 2.82L25.80-2.26C25.62-2.65 25.34-3.06 25.11-3.39L23.51-5.66L23.63-5.99C24.07-7.25 24.21-8.03 24.30-9.29L24.55-12.84C24.67-14.53 23.67-15.82 21.95-15.82C20.65-15.82 19.77-15.16 18.57-13.99L16.70-12.14C16.08-11.53 15.88-11.04 15.82-10.24L15.60-7.34C15.54-6.61 15.95-6.08 16.63-6.06C17.31-6.01 17.72-6.41 17.79-7.20L18.07-10.38L18.97-11.20C19.30-11.50 19.73-11.30 19.70-10.97L19.50-8.26C19.39-6.90 19.71-6.26 20.66-5.09L23.14-1.96C23.39-1.64 23.43-1.51 23.53-1.32ZM30.39-11.00L27.54-11.00L25.69-13.07L25.50-10.08L26.25-9.33C26.66-8.92 27.01-8.80 27.74-8.80L30.39-8.80C31.13-8.80 31.62-9.22 31.62-9.91C31.62-10.57 31.11-11.00 30.39-11.00ZM3.71-11.44L11.74-11.44C12.16-11.44 12.48-11.78 12.48-12.20C12.48-12.62 12.16-12.97 11.74-12.97L3.71-12.97C3.30-12.97 2.99-12.61 2.99-12.20C2.99-11.79 3.30-11.44 3.71-11.44ZM7.22-5.57L11.68-5.57C12.09-5.57 12.41-5.91 12.41-6.33C12.41-6.75 12.09-7.10 11.68-7.10L7.22-7.10C6.80-7.10 6.48-6.75 6.48-6.33C6.48-5.91 6.80-5.57 7.22-5.57ZM17.11 4.25L20.80-0.14C21.16-0.56 21.21-0.68 21.35-1.13L21.66-2.03L19.68-4.51L19.05-1.66L15.40 2.66C14.23 4.04 16.14 5.40 17.11 4.25ZM4.14 0.23L10.25 0.23C10.66 0.23 10.98-0.11 10.98-0.53C10.98-0.95 10.66-1.30 10.25-1.30L4.14-1.30C3.73-1.30 3.41-0.95 3.41-0.53C3.41-0.11 3.73 0.23 4.14 0.23Z" fill="currentColor"/>
</svg>