<svg xmlns="http://www.w3.org/2000/svg" viewBox="0 0 24 24" width="24" height="24">
  <title>figure.highintensity.intervaltraining</title>
  <path transform="matrix(0.6903991370010788, 0, 0, 0.6903991370010788, 3.964727737533601, 18.10032362459547)" d="M12.66-18.20C14.06-18.20 15.20-19.35 15.20-20.78C15.20-22.18 14.06-23.32 12.66-23.32C11.23-23.32 10.08-22.18 10.08-20.78C10.08-19.35 11.23-18.20 12.66-18.20ZM15.40-11.36C15.88-10.85 16.80-10.89 17.23-11.55L20.07-16.13C20.95-17.53 18.89-18.66 18.08-17.37L16.02-14.04L14.40-15.67C12.84-17.21 11.14-17.53 8.78-17.26L4.61-16.79C4.07-16.73 3.64-16.30 3.59-15.79L3-11.18C2.81-9.70 5.11-9.32 5.31-10.90L5.78-14.58L7.96-14.82C8.26-14.85 8.47-14.65 8.43-14.31L7.88-9.80C7.61-7.66 8.84-6.43 10.95-6.59L15.26-6.89L13.97-2.19C13.54-0.61 15.82-0.06 16.23-1.59L17.93-7.85C18.14-8.65 17.60-9.33 16.71-9.33L12.26-9.33L12.82-13.17C12.88-13.55 13.22-13.56 13.43-13.32ZM9.04-5.70L8.75-1.52L6.55 3.98C6.16 4.97 6.87 5.65 7.59 5.65C8.05 5.65 8.51 5.40 8.74 4.82L10.99-0.83C11.02-0.91 11.05-1.01 11.06-1.09L11.72-5.50L11.03-5.45C10.29-5.40 9.61-5.50 9.04-5.70Z" fill="currentColor"/>
</svg>