<svg xmlns="http://www.w3.org/2000/svg" viewBox="0 0 24 24" width="24" height="24">
  <title>figure.stairs</title>
  <path transform="matrix(0.6571685277884739, 0, 0, 0.6571685277884739, 2.7932229495571814, 17.564112437427802)" d="M11.85-18.56C13.24-18.56 14.40-19.72 14.40-21.12C14.40-22.52 13.24-23.68 11.85-23.68C10.44-23.68 9.28-22.52 9.28-21.12C9.28-19.72 10.44-18.56 11.85-18.56ZM13.36 0.67C13.82 0.79 14.59 0.62 14.81-0.13L16.51-5.77C16.69-6.38 16.42-7.00 15.77-7.22L11.17-8.81L11.74-12.74C11.77-12.97 12.07-13.03 12.18-12.81L13.16-10.90C13.38-10.46 13.77-10.25 14.21-10.25L18.93-10.25C19.57-10.25 20.11-10.76 20.11-11.43C20.11-12.06 19.57-12.60 18.93-12.60L14.94-12.60L13.41-15.63C12.91-16.62 12.04-17.31 10.93-17.52L10.28-17.65C9.07-17.88 8.10-17.63 7.35-17.16L3.54-14.79C3.21-14.57 2.99-14.19 2.99-13.77L2.99-9.07C2.99-8.43 3.53-7.88 4.17-7.88C4.82-7.88 5.36-8.43 5.36-9.07L5.36-13.14L7.00-14.16C7.15-14.24 7.32-14.14 7.29-13.97L6.75-9.62C6.54-7.96 7.09-6.82 9-6.38L13.89-5.23L12.56-0.79C12.39-0.18 12.62 0.46 13.36 0.67ZM4.71 4.91C5.13 5.19 5.89 5.19 6.33 4.56L9.80-0.61C9.96-0.86 10.04-1.04 10.09-1.34L10.58-4.79L8.74-5.23C8.46-5.29 8.21-5.38 7.98-5.46L7.73-1.75L4.38 3.27C4.02 3.81 4.15 4.55 4.71 4.91ZM9.38 6.75L13.15 6.75C13.51 6.75 13.82 6.45 13.82 6.08L13.82 3.82L16.93 3.82C17.29 3.82 17.58 3.54 17.58 3.16L17.58 0.89L20.72 0.89C21.08 0.89 21.36 0.61 21.36 0.25L21.36-2.03L24.36-2.03C24.73-2.03 25.03-2.32 25.03-2.68C25.03-3.04 24.73-3.34 24.36-3.34L20.72-3.34C20.36-3.34 20.07-3.04 20.07-2.68L20.07-0.41L16.93-0.41C16.56-0.41 16.29-0.11 16.29 0.25L16.29 2.52L13.15 2.52C12.80 2.52 12.52 2.80 12.52 3.16L12.52 5.45L9.38 5.45C9 5.45 8.73 5.73 8.73 6.08C8.73 6.45 9 6.75 9.38 6.75Z" fill="currentColor"/>
</svg>