<svg xmlns="http://www.w3.org/2000/svg" viewBox="0 0 24 24" width="24" height="24">
  <title>figure.strengthtraining.traditional</title>
  <path transform="matrix(0.7051253890808363, 0, 0, 0.7051253890808363, 0.030771959957913264, 17.989269076618186)" d="M16.98-17.55C18.39-17.55 19.55-18.69 19.55-20.13C19.55-21.54 18.39-22.68 16.98-22.68C15.56-22.68 14.43-21.54 14.43-20.13C14.43-18.69 15.56-17.55 16.98-17.55ZM5.39-3.07L6.07-3.07C6.54-3.07 6.86-3.40 6.86-3.87L6.86-6.36L8.75-6.36L8.60-6.05C8.31-5.46 8.55-4.75 9.12-4.46C9.70-4.16 10.39-4.41 10.69-4.99L11.37-6.36L22.61-6.36L23.27-4.99C23.57-4.41 24.27-4.16 24.86-4.46C25.42-4.75 25.66-5.46 25.37-6.05L25.22-6.36L27.09-6.36L27.09-3.87C27.09-3.40 27.41-3.07 27.88-3.07L28.57-3.07C29.04-3.07 29.34-3.40 29.34-3.87L29.34-6.36L30.32-6.36C30.68-6.36 30.96-6.64 30.96-7.01C30.96-7.37 30.68-7.66 30.32-7.66L29.34-7.66L29.34-10.16C29.34-10.63 29.04-10.95 28.57-10.95L27.88-10.95C27.41-10.95 27.09-10.63 27.09-10.16L27.09-7.66L24.57-7.66L21.07-14.75C20.55-15.79 19.59-16.39 18.39-16.39L15.59-16.39C14.38-16.39 13.42-15.79 12.90-14.75L9.40-7.66L6.86-7.66L6.86-10.16C6.86-10.63 6.54-10.95 6.07-10.95L5.39-10.95C4.92-10.95 4.61-10.63 4.61-10.16L4.61-7.66L3.64-7.66C3.27-7.66 2.99-7.37 2.99-7.01C2.99-6.64 3.27-6.36 3.64-6.36L4.61-6.36L4.61-3.87C4.61-3.40 4.92-3.07 5.39-3.07ZM14.41-8.79L19.57-8.79L19.57-11.59C19.57-11.79 19.89-11.88 20.00-11.64L21.96-7.66L12.01-7.66L13.98-11.64C14.10-11.88 14.41-11.81 14.41-11.60ZM12.23 5.66C12.80 5.78 13.44 5.48 13.62 4.69L14.72-0.35L16.98-4.52L19.25-0.35L20.36 4.69C20.53 5.52 21.23 5.80 21.81 5.65C22.36 5.50 22.80 4.97 22.63 4.17L21.52-1.02C21.50-1.13 21.49-1.20 21.45-1.30L20.06-5.23L13.92-5.23L12.52-1.30C12.48-1.20 12.47-1.13 12.45-1.02L11.33 4.17C11.16 5.00 11.66 5.54 12.23 5.66Z" fill="currentColor"/>
</svg>