<svg xmlns="http://www.w3.org/2000/svg" viewBox="0 0 24 24" width="24" height="24">
  <title>figure.play</title>
  <path transform="matrix(0.7082339108482899, 0, 0, 0.7082339108482899, -0.11847702043780473, 17.98019654224354)" d="M12.64-4.08C14.06-2.38 16.35-2.61 17.50-4.34L28.30-20.51C28.68-21.08 28.52-21.83 27.96-22.21C27.41-22.58 26.65-22.44 26.26-21.87L21.38-14.52C20.82-13.68 19.86-13.23 18.86-13.23C17.79-13.23 16.70-13.73 16.01-14.77L11.30-21.87C10.92-22.44 10.17-22.58 9.60-22.21C9.04-21.83 8.88-21.08 9.26-20.51L15.04-11.85C15.30-11.45 15.32-10.91 15.04-10.50L13.43-8.07L9.91-11.12C9.42-11.57 8.66-11.59 8.12-11.05L3.35-6.26C2.87-5.77 2.87-5.03 3.35-4.55C3.88-4.04 4.61-4.10 5.05-4.55L8.99-8.46ZM6.05-20.79L7.97-20.79C7.89-21.22 7.93-21.68 8.10-22.09L6.05-22.09C5.68-22.09 5.39-21.80 5.39-21.43C5.39-21.07 5.68-20.79 6.05-20.79ZM13.37-20.79L24.18-20.79L24.91-21.88C24.96-21.94 25.01-22.02 25.05-22.09L12.50-22.09C12.55-22.02 12.60-21.94 12.64-21.87ZM29.59-20.79L30.59-20.79C30.95-20.79 31.23-21.07 31.23-21.43C31.23-21.80 30.95-22.09 30.59-22.09L29.46-22.09C29.63-21.68 29.67-21.23 29.59-20.79ZM18.86-14.47C20.27-14.47 21.42-15.61 21.42-17.03C21.42-18.45 20.27-19.59 18.86-19.59C17.44-19.59 16.30-18.45 16.30-17.03C16.30-15.61 17.44-14.47 18.86-14.47ZM15.53 4.98C15.90 4.42 15.76 3.70 15.19 3.32L10.90 0.45L13.27-2.17C12.73-2.43 12.23-2.82 11.78-3.35L10.93-4.34L8.05 0C7.68 0.55 7.82 1.31 8.38 1.70L13.86 5.32C14.43 5.71 15.18 5.53 15.53 4.98Z" fill="currentColor"/>
</svg>