<svg xmlns="http://www.w3.org/2000/svg" viewBox="0 0 24 24" width="24" height="24">
  <title>figure.wave</title>
  <path transform="matrix(0.7686731670253252, 0, 0, 0.7686731670253252, 4.969700457788509, 18.540970748386037)" d="M2.99-20.41L3.21-16.30C3.25-15.55 3.54-15.12 4.07-14.73L6.61-12.87C6.93-12.64 7.10-12.48 7.10-11.93L7.10 3.36C7.10 4.00 7.62 4.50 8.25 4.50C8.88 4.50 9.39 4.00 9.39 3.36L9.39-4.86C9.39-5.07 9.57-5.26 9.79-5.26C10.00-5.26 10.17-5.07 10.17-4.86L10.17 3.36C10.17 4.00 10.69 4.50 11.32 4.50C11.95 4.50 12.46 4.00 12.46 3.36L12.46-10.22C12.46-10.43 12.63-10.59 12.84-10.59C13.05-10.59 13.22-10.43 13.22-10.22L13.22-5.71C13.22-5.12 13.69-4.66 14.26-4.66C14.84-4.66 15.30-5.12 15.30-5.71L15.30-10.75C15.30-13.34 13.41-15.06 10.64-15.06L8.20-15.06C7.50-15.06 7.07-15.20 6.50-15.60L5.29-16.46L5.06-20.52C5.04-21.09 4.55-21.56 3.97-21.52C3.39-21.47 2.96-20.99 2.99-20.41ZM9.79-16.37C11.20-16.37 12.34-17.51 12.34-18.93C12.34-20.34 11.20-21.48 9.79-21.48C8.37-21.48 7.23-20.34 7.23-18.93C7.23-17.51 8.37-16.37 9.79-16.37Z" fill="currentColor"/>
</svg>