<svg xmlns="http://www.w3.org/2000/svg" viewBox="0 0 24 24" width="24" height="24">
  <title>figure.walk.treadmill</title>
  <path transform="matrix(0.7069166046207028, 0, 0, 0.7069166046207028, -0.11246563490170969, 17.981177209407978)" d="M14.54-16.99C15.86-16.99 16.91-18.04 16.91-19.34C16.91-20.66 15.86-21.70 14.54-21.70C13.24-21.70 12.19-20.66 12.19-19.34C12.19-18.04 13.24-16.99 14.54-16.99ZM16.68 0.66C17.34 2.02 19.32 1.18 18.61-0.28L16.72-4.13C16.56-4.46 16.32-4.83 16.11-5.12L14.72-7.10L14.81-7.39C15.18-8.51 15.34-9.19 15.41-10.29L15.62-13.41C15.73-14.89 14.86-16.02 13.34-16.02C12.20-16.02 11.43-15.45 10.37-14.40L8.73-12.79C8.19-12.26 8.03-11.82 7.97-11.13L7.77-8.58C7.71-7.92 8.07-7.49 8.66-7.45C9.27-7.41 9.63-7.77 9.69-8.45L9.93-11.25L10.73-11.96C11.02-12.21 11.39-12.06 11.38-11.77L11.20-9.40C11.11-8.19 11.39-7.62 12.20-6.60L14.40-3.86C14.61-3.59 14.64-3.47 14.73-3.29ZM20.75-11.80L18.26-11.80L16.70-13.52L16.50-10.93L17.12-10.31C17.47-9.96 17.78-9.86 18.42-9.86L20.75-9.86C21.41-9.86 21.84-10.23 21.84-10.83C21.84-11.43 21.40-11.80 20.75-11.80ZM25.16 1.11L26.23 1.04C26.34 1.04 26.40 1.03 26.48 1.04L28.35-9.63L30.90-10.82C31.23-10.98 31.37-11.37 31.22-11.71C31.08-12.01 30.69-12.15 30.34-11.99L24.88-9.45C24.55-9.28 24.40-8.89 24.56-8.57C24.69-8.26 25.09-8.11 25.44-8.27L26.93-8.96ZM9 1.70L12.34-2.26C12.66-2.64 12.69-2.72 12.82-3.13L13.03-3.76L11.30-5.92L10.80-3.59L7.51 0.28C6.49 1.50 8.14 2.70 9 1.70ZM3.60 4.78L26.66 4.78C27.39 4.78 27.96 4.21 27.96 3.46C27.96 2.60 27.30 2.12 26.40 2.18L3.60 3.54C3.26 3.57 2.99 3.82 2.99 4.17C2.99 4.51 3.26 4.78 3.60 4.78Z" fill="currentColor"/>
</svg>