<svg xmlns="http://www.w3.org/2000/svg" viewBox="0 0 24 24" width="24" height="24">
  <title>figure.arms.open</title>
  <path transform="matrix(0.7653213751868461, 0, 0, 0.7653213751868461, 3.686998990327347, 18.60089686098655)" d="M10.86-16.64C12.27-16.64 13.39-17.75 13.39-19.16C13.39-20.57 12.27-21.69 10.86-21.69C9.46-21.69 8.33-20.57 8.33-19.16C8.33-17.75 9.46-16.64 10.86-16.64ZM10.86-5.30C11.34-5.30 11.53-4.97 11.80-4.13C12.20-2.94 13.38 1.97 13.78 3.41C13.98 4.14 14.36 4.44 14.91 4.44C15.66 4.44 16.11 3.76 15.90 3.02C15.82 2.71 14.12-4.39 13.88-5.86C13.68-7.15 13.63-9.75 13.63-10.98C13.63-11.17 13.84-11.24 13.96-11.07C14.84-9.84 16.44-7.55 16.76-7.17C17.11-6.77 17.67-6.70 18.13-6.96C18.73-7.28 18.87-7.92 18.62-8.37C18.53-8.54 18.40-8.72 18.28-8.89L15.25-13.36C14.29-14.78 13.09-15.41 10.86-15.41C8.64-15.41 7.44-14.78 6.48-13.36L3.45-8.89C3.33-8.72 3.20-8.54 3.11-8.37C2.86-7.92 2.99-7.28 3.60-6.96C4.05-6.70 4.62-6.77 4.96-7.17C5.27-7.55 6.89-9.83 7.77-11.07C7.88-11.23 8.10-11.17 8.10-10.97C8.10-9.74 8.04-7.15 7.84-5.86C7.61-4.39 5.91 2.71 5.82 3.02C5.61 3.76 6.07 4.44 6.82 4.44C7.37 4.44 7.75 4.14 7.95 3.41C8.34 1.97 9.53-2.94 9.93-4.13C10.20-4.97 10.38-5.30 10.86-5.30Z" fill="currentColor"/>
</svg>