<svg xmlns="http://www.w3.org/2000/svg" viewBox="0 0 24 24" width="24" height="24">
  <title>figure.mind.and.body</title>
  <path transform="matrix(0.8039877390079735, 0, 0, 0.8039877390079735, -0.39899841251358925, 18.923679293820612)" d="M15.42-14.19C16.83-14.19 17.96-15.34 17.96-16.77C17.96-18.18 16.83-19.31 15.42-19.31C13.99-19.31 12.84-18.18 12.84-16.77C12.84-15.34 13.99-14.19 15.42-14.19ZM3.38-9.42L7.30-5.48C7.84-4.95 8.72-4.93 9.25-5.59L11.72-8.64C11.88-8.82 12.14-8.72 12.14-8.48L12.14-3.29L7.71-3.79C6.19-3.96 5.70-1.72 7.16-1.24L12.19 0.42C11.94 1.46 12.84 2.36 13.88 2.02L15.42 1.51L16.97 2.02C18 2.36 18.90 1.46 18.66 0.42L23.70-1.24C25.16-1.72 24.66-3.96 23.13-3.79L18.70-3.29L18.70-8.48C18.70-8.72 18.97-8.82 19.13-8.64L21.60-5.59C22.13-4.93 23.00-4.95 23.54-5.48L27.47-9.42C27.98-9.95 28.00-10.76 27.47-11.27C26.96-11.78 26.13-11.78 25.62-11.27L22.72-8.37L19.77-11.99C19.28-12.59 18.54-12.96 17.75-12.96L13.10-12.96C12.30-12.96 11.58-12.59 11.07-11.99L8.12-8.37L5.23-11.27C4.71-11.78 3.88-11.78 3.38-11.27C2.85-10.76 2.86-9.95 3.38-9.42Z" fill="currentColor"/>
</svg>