<svg xmlns="http://www.w3.org/2000/svg" viewBox="0 0 24 24" width="24" height="24">
  <title>figure.stand</title>
  <path transform="matrix(0.7666966157532196, 0, 0, 0.7666966157532196, 5.4770889487870615, 18.576819407008088)" d="M8.51-16.51C9.93-16.51 11.06-17.65 11.06-19.07C11.06-20.48 9.93-21.62 8.51-21.62C7.09-21.62 5.95-20.48 5.95-19.07C5.95-17.65 7.09-16.51 8.51-16.51ZM2.99-5.82C2.99-5.24 3.45-4.78 4.03-4.78C4.61-4.78 5.06-5.24 5.06-5.82L5.06-10.34C5.06-10.55 5.24-10.71 5.45-10.71C5.66-10.71 5.82-10.55 5.82-10.34L5.82 3.33C5.82 3.96 6.34 4.46 6.97 4.46C7.61 4.46 8.12 3.96 8.12 3.33L8.12-4.98C8.12-5.19 8.30-5.38 8.51-5.38C8.72-5.38 8.91-5.19 8.91-4.98L8.91 3.33C8.91 3.96 9.41 4.46 10.04 4.46C10.68 4.46 11.19 3.96 11.19 3.33L11.19-10.34C11.19-10.55 11.36-10.71 11.57-10.71C11.78-10.71 11.95-10.55 11.95-10.34L11.95-5.82C11.95-5.24 12.41-4.78 12.98-4.78C13.57-4.78 14.03-5.24 14.03-5.82L14.03-10.86C14.03-13.45 12.13-15.16 9.35-15.16L7.66-15.16C4.89-15.16 2.99-13.45 2.99-10.86Z" fill="currentColor"/>
</svg>