<svg xmlns="http://www.w3.org/2000/svg" viewBox="0 0 24 24" width="24" height="24">
  <title>figure.indoor.cycle</title>
  <path transform="matrix(0.7277896233120114, 0, 0, 0.7277896233120114, 3.09218787875585, 18.162046908315563)" d="M18.80-17.09C20.20-17.09 21.35-18.23 21.35-19.66C21.35-21.07 20.20-22.21 18.80-22.21C17.37-22.21 16.22-21.07 16.22-19.66C16.22-18.23 17.37-17.09 18.80-17.09ZM12.93 1.01C13.59 1.01 14.16 0.46 14.16-0.20L14.16-6.34C14.16-6.63 14.05-6.89 13.88-7.10L11.10-10.51C10.92-10.73 10.98-10.97 11.19-11.09L14.58-12.84C14.82-12.97 15.07-12.88 15.12-12.59L15.41-10.51C15.47-10.05 15.73-9.74 16.22-9.50L19.55-7.83C20.46-7.37 21.18-7.75 21.40-8.32C21.62-8.86 21.45-9.56 20.71-9.94L17.72-11.46L17.24-15C16.98-16.89 14.89-18.05 12.90-17.00L8.51-14.71C6.48-13.65 6.21-11.34 7.71-9.83L11.74-5.82L11.74-0.20C11.74 0.46 12.28 1.01 12.93 1.01ZM3.54-6.57C4.00-5.75 4.85-5.51 5.70-5.70L5.84-5.73L8.70 2.77L6.46 4.24C5.98 4.56 6.12 5.27 6.68 5.27L19.11 5.27C19.66 5.27 19.80 4.54 19.35 4.24L17.13 2.79L20.00-5.91C20.12-6.26 19.93-6.66 19.59-6.76C19.21-6.88 18.87-6.68 18.74-6.33L17.09-1.39C16.65-2.27 15.96-3 15.09-3.47L15.09-1.71C15.71-1.14 16.08-0.30 16.08 0.61C16.08 2.37 14.66 3.79 12.89 3.79C11.18 3.79 9.73 2.33 9.73 0.61C9.73-0.32 10.14-1.17 10.78-1.76L10.78-3.49C9.90-3.05 9.18-2.31 8.73-1.41L7.20-6.02L8.23-6.26C8.58-6.33 8.80-6.59 8.80-6.96C8.80-7.32 8.54-7.58 8.20-7.64L3.88-8.39C3.15-8.52 2.78-7.93 3.12-7.34Z" fill="currentColor"/>
</svg>