<svg xmlns="http://www.w3.org/2000/svg" viewBox="0 0 24 24" width="24" height="24">
  <title>figure.cross.training</title>
  <path transform="matrix(0.7274793975561239, 0, 0, 0.7274793975561239, 3.4063436975697905, 18.155157715260017)" d="M10.34-17.11C11.74-17.11 12.89-18.26 12.89-19.65C12.89-21.06 11.74-22.21 10.34-22.21C8.93-22.21 7.78-21.06 7.78-19.65C7.78-18.26 8.93-17.11 10.34-17.11ZM3.56-11.10C2.18-9.18 3.40-6.57 6.14-6.98L10.44-7.63L8.78-2.68C8.21-1.04 10.51-0.36 11.03-1.91L13.24-8.63C13.51-9.43 13.01-10.23 12.06-10.23L7.82-10.23L10.04-13.20C10.27-13.50 10.41-13.54 10.70-13.54L19.46-13.54C20.11-13.54 20.64-14.05 20.64-14.71C20.64-15.35 20.12-15.88 19.46-15.88L8.32-15.88C7.50-15.88 6.70-15.46 6.19-14.75ZM4.59 4.39C4.59 4.93 4.97 5.29 5.52 5.29L14.31 5.29C14.86 5.29 15.22 4.93 15.22 4.39L15.22 0.87C15.22 0.34 14.86-0.01 14.31-0.01L5.52-0.01C4.97-0.01 4.59 0.34 4.59 0.87Z" fill="currentColor"/>
</svg>