<svg xmlns="http://www.w3.org/2000/svg" viewBox="0 0 24 24" width="24" height="24">
  <title>figure.track.and.field</title>
  <path transform="matrix(0.6802178822904211, 0, 0, 0.6802178822904211, 2.0622805365237316, 17.751295336787564)" d="M16.77-18.04C18.18-18.04 19.32-19.17 19.32-20.61C19.32-22.02 18.18-23.16 16.77-23.16C15.35-23.16 14.20-22.02 14.20-20.61C14.20-19.17 15.35-18.04 16.77-18.04ZM5.37-3.93L13.09-3.93C14.17-3.93 14.64-5.12 14.03-5.86L11.61-8.82L18.53-9.28L25.02-9.28C25.68-9.28 26.23-9.81 26.23-10.46C26.23-11.11 25.68-11.66 25.02-11.66L13.01-11.66L15.84-14.51C15.97-14.63 16.14-14.71 16.31-14.68L24.82-13.58C25.51-13.50 26.14-14.03 26.14-14.75C26.14-15.34 25.71-15.86 25.11-15.93L7.30-18.18C6.93-18.22 6.59-18.09 6.32-17.85L3.34-14.87C2.87-14.40 2.88-13.69 3.34-13.21C3.76-12.76 4.54-12.71 5.02-13.21L7.58-15.76L10.36-15.41C10.62-15.39 10.72-15.11 10.54-14.92L7.91-12.33C6.89-11.32 6.83-9.69 7.91-8.61L10.21-6.29L5.37-6.29C4.71-6.29 4.18-5.77 4.18-5.11C4.18-4.46 4.71-3.93 5.37-3.93ZM16.90 6.25C17.26 6.25 17.54 5.96 17.54 5.60L17.54-6.61C17.54-6.97 17.26-7.25 16.90-7.25C16.54-7.25 16.24-6.97 16.24-6.61L16.24 5.60C16.24 5.96 16.54 6.25 16.90 6.25Z" fill="currentColor"/>
</svg>