<svg xmlns="http://www.w3.org/2000/svg" viewBox="0 0 24 24" width="24" height="24">
  <title>figure.jumprope</title>
  <path transform="matrix(0.6276817457398554, 0, 0, 0.6276817457398554, 5.1739610150790725, 17.307098197866864)" d="M9.18 7.48C9.79 7.48 10.31 6.95 10.31 6.34L10.31 0.20L10.88-4.36L11.43 0.20L11.43 6.34C11.43 6.95 11.95 7.48 12.56 7.48C13.18 7.48 13.70 6.95 13.70 6.34L13.70-10.01C13.70-10.15 13.89-10.17 13.95-10.05C15.38-7.41 16.22-5.04 16.56-4.01C16.77-3.43 17.41-3.11 18-3.30C18.46-3.46 18.75-3.89 18.76-4.36L18.76-12.52C18.76-20.05 15.93-24.39 10.88-24.39C5.84-24.39 3-20.05 3-12.52L3-4.54C2.99-4.48 2.99-4.42 2.99-4.36C2.99-3.90 3.28-3.46 3.75-3.30C4.34-3.11 4.97-3.43 5.18-4.01C5.53-5.04 6.36-7.41 7.80-10.05C7.86-10.17 8.05-10.15 8.05-10.01L8.05 6.34C8.05 6.95 8.57 7.48 9.18 7.48ZM10.88-23.09C15.08-23.09 17.46-19.21 17.46-12.52L17.46-7.97C16.64-9.87 15.50-12.15 14.23-13.59C13.71-14.18 12.95-14.53 12.13-14.53L9.61-14.53C8.79-14.53 8.03-14.18 7.52-13.59C6.26-12.16 5.11-9.89 4.30-8.00L4.30-12.52C4.30-19.21 6.67-23.09 10.88-23.09ZM10.88-15.74C12.26-15.74 13.38-16.86 13.38-18.27C13.38-19.66 12.26-20.78 10.88-20.78C9.47-20.78 8.34-19.66 8.34-18.27C8.34-16.86 9.47-15.74 10.88-15.74Z" fill="currentColor"/>
</svg>