<svg xmlns="http://www.w3.org/2000/svg" viewBox="0 0 24 24" width="24" height="24">
  <title>figure.kickboxing</title>
  <path transform="matrix(0.7211049381096483, 0, 0, 0.7211049381096483, 1.6901239525457732, 18.13190617403889)" d="M5.57-17.25C6.96-17.25 8.11-18.40 8.11-19.83C8.11-21.23 6.96-22.37 5.57-22.37C4.14-22.37 2.99-21.23 2.99-19.83C2.99-18.40 4.14-17.25 5.57-17.25ZM4.22-7.71L9.07-7.71L9.36-7.42C9.95-6.83 10.75-6.54 11.52-6.54C12.16-6.54 12.79-6.74 13.34-7.15L19.20-11.53L25.02-15.04C25.58-15.36 25.77-16.09 25.45-16.65C25.10-17.21 24.38-17.39 23.81-17.05L12.71-10.41L9.63-13.50C9.55-13.57 9.60-13.68 9.70-13.68L12.53-13.68C13.18-13.68 13.72-14.20 13.72-14.86L13.72-18.38C14.41-18.61 14.92-19.27 14.92-20.04C14.92-21.04 14.11-21.82 13.13-21.82C12.15-21.82 11.36-21.05 11.34-20.05L11.34-20.04L11.34-16.03L5.39-16.03C4.10-16.03 3.04-14.98 3.04-13.68L3.04-8.89C3.04-8.26 3.55-7.71 4.22-7.71ZM5.31-10.03L5.31-11.16C5.31-11.32 5.50-11.40 5.61-11.29L6.87-10.03ZM11.70 5.34C12.30 5.46 12.98 5.06 13.11 4.41L14.30-1.54C14.33-1.69 14.33-1.80 14.31-1.97L14.09-6.29C13.28-5.68 12.39-5.41 11.52-5.41C11.41-5.41 11.30-5.41 11.18-5.43L11.91-1.77L10.77 3.94C10.64 4.58 11.06 5.21 11.70 5.34Z" fill="currentColor"/>
</svg>