<svg xmlns="http://www.w3.org/2000/svg" viewBox="0 0 24 24" width="24" height="24">
  <title>figure.core.training</title>
  <path transform="matrix(0.5679664539307778, 0, 0, 0.5679664539307778, 0.30190656467575416, 16.89538273671196)" d="M7.69-9.60C9.11-9.60 10.24-10.73 10.24-12.15C10.24-13.56 9.11-14.71 7.69-14.71C6.28-14.71 5.14-13.56 5.14-12.15C5.14-10.73 6.28-9.60 7.69-9.60ZM15.35-2.53L18.70-2.53C21.48-2.53 22.27-4.11 22.03-5.93L21.26-12.08L27.27-12.08C27.95-12.08 28.48-12.62 28.48-13.30C28.48-13.97 27.95-14.50 27.27-14.50L19.77-14.50C19.08-14.50 18.55-14.02 18.55-13.20L18.55-6.98L16.55-6.98C15.48-6.98 14.58-7.37 14.06-8.19C13.95-8.38 13.95-8.66 14.17-8.92L17.18-12.49C17.88-13.31 17.32-14.50 16.30-14.50L12.07-14.50C11.40-14.50 10.86-13.97 10.86-13.30C10.86-12.61 11.38-12.08 12.07-12.08L13.78-12.08L12.02-10.01C10.77-8.52 9.66-7.49 7.78-6.66L5.95-5.84L6.53-7.86C6.71-8.53 6.28-9.19 5.66-9.33C5.00-9.49 4.35-9.09 4.18-8.47L3.05-4.03C2.73-2.84 3.79-2.23 4.83-2.68L8.61-4.36C9-4.51 9.22-4.50 9.52-4.27C10.73-3.23 12.68-2.53 15.35-2.53ZM28.29-5.25L37.00-5.25C37.66-5.25 38.20-5.79 38.20-6.47C38.20-7.14 37.66-7.68 37.00-7.68L28.17-7.68C28.08-7.68 27.96-7.68 27.83-7.66L23.00-7.27L23.17-6.09C23.25-5.40 23.24-4.77 23.10-4.21Z" fill="currentColor"/>
</svg>