<svg xmlns="http://www.w3.org/2000/svg" viewBox="0 0 24 24" width="24" height="24">
  <title>figure.stand.dress</title>
  <path transform="matrix(0.7666966157532196, 0, 0, 0.7666966157532196, 4.318059299191374, 18.576819407008088)" d="M10.02-16.51C11.44-16.51 12.57-17.65 12.57-19.07C12.57-20.48 11.44-21.62 10.02-21.62C8.61-21.62 7.48-20.48 7.48-19.07C7.48-17.65 8.61-16.51 10.02-16.51ZM8.48 4.46C9.13 4.46 9.63 3.96 9.63 3.33L9.63-1.70C9.63-1.91 9.81-2.10 10.02-2.10C10.23-2.10 10.42-1.91 10.42-1.70L10.42 3.33C10.42 3.96 10.92 4.46 11.55 4.46C12.19 4.46 12.70 3.96 12.70 3.33L12.70-1.70L14.29-1.70C14.93-1.70 15.22-2.25 15.01-2.88L12.62-10.15C12.45-10.70 13.20-10.92 13.38-10.35L14.95-5.60C15.43-4.13 17.46-4.72 16.98-6.20L15.30-11.25C14.40-14.00 13.07-15.16 10.29-15.16L9.76-15.16C6.98-15.16 5.64-14.00 4.73-11.25L3.06-6.20C2.58-4.72 4.61-4.13 5.09-5.60L6.66-10.35C6.84-10.92 7.61-10.70 7.42-10.15L5.03-2.88C4.83-2.25 5.11-1.70 5.75-1.70L7.35-1.70L7.35 3.33C7.35 3.96 7.85 4.46 8.48 4.46Z" fill="currentColor"/>
</svg>