<svg xmlns="http://www.w3.org/2000/svg" viewBox="0 0 24 24" width="24" height="24">
  <title>figure.walk.triangle</title>
  <path transform="matrix(0.8142493638676844, 0, 0, 0.8142493638676844, 0.053435114503816994, 18.93702290076336)" d="M5.59 2.61L23.75 2.61C25.75 2.61 26.95 1.23 26.95-0.56C26.95-1.11 26.79-1.69 26.50-2.20L17.40-18.05C16.79-19.11 15.75-19.65 14.67-19.65C13.59-19.65 12.54-19.11 11.94-18.05L2.85-2.20C2.53-1.68 2.39-1.11 2.39-0.56C2.39 1.23 3.60 2.61 5.59 2.61ZM5.60 0.77C4.78 0.77 4.29 0.14 4.29-0.57C4.29-0.80 4.34-1.08 4.46-1.32L13.55-17.16C13.79-17.59 14.24-17.78 14.67-17.78C15.11-17.78 15.54-17.59 15.79-17.16L24.87-1.31C25.00-1.07 25.05-0.80 25.05-0.57C25.05 0.14 24.54 0.77 23.73 0.77ZM14.88-11.74C15.60-11.74 16.18-12.33 16.18-13.03C16.18-13.76 15.60-14.33 14.88-14.33C14.16-14.33 13.57-13.76 13.57-13.03C13.57-12.33 14.16-11.74 14.88-11.74ZM16.29-1.23C16.66-0.47 17.81-0.94 17.39-1.77L16.13-4.35C16.04-4.54 15.89-4.73 15.80-4.91L14.99-6.06L15.02-6.22C15.27-6.86 15.33-7.24 15.38-7.89L15.50-9.67C15.57-10.54 15.05-11.17 14.18-11.17C13.54-11.17 13.10-10.84 12.48-10.25L11.54-9.33C11.23-9.01 11.13-8.77 11.10-8.37L10.99-6.89C10.97-6.54 11.18-6.28 11.51-6.27C11.86-6.23 12.06-6.43 12.09-6.83L12.23-8.44L12.69-8.84C12.84-8.99 13.08-8.89 13.05-8.73L12.96-7.37C12.90-6.68 13.07-6.34 13.54-5.77L14.79-4.20C14.92-4.03 14.94-3.97 14.99-3.88ZM18.46-8.74L17.02-8.74L16.10-9.75L16.00-8.27L16.37-7.90C16.57-7.71 16.75-7.64 17.11-7.64L18.46-7.64C18.82-7.64 19.05-7.84 19.05-8.19C19.05-8.53 18.82-8.74 18.46-8.74ZM11.75-1.07L13.62-3.28C13.79-3.49 13.83-3.55 13.89-3.76L14.03-4.20L13.03-5.45L12.74-4.04L10.90-1.85C10.30-1.16 11.26-0.48 11.75-1.07Z" fill="currentColor"/>
</svg>