<svg xmlns="http://www.w3.org/2000/svg" viewBox="0 0 24 24" width="24" height="24">
  <title>figure.step.training</title>
  <path transform="matrix(0.6951799049558723, 0, 0, 0.6951799049558723, 2.780903555916543, 17.894093686354378)" d="M13.16-17.73C14.57-17.73 15.71-18.89 15.71-20.30C15.71-21.70 14.57-22.86 13.16-22.86C11.75-22.86 10.59-21.70 10.59-20.30C10.59-18.89 11.75-17.73 13.16-17.73ZM3.94-8.77C4.55-8.66 5.20-8.95 5.36-9.67L6.35-14.12L8.12-14.12C8.34-14.12 8.51-13.93 8.45-13.71L7.27-9.15C6.77-7.30 7.99-5.47 10.32-6.06L14.63-7.13L13.79-2.98C13.66-2.34 14.09-1.70 14.72-1.56C15.27-1.44 15.98-1.79 16.14-2.50L17.33-8.48C17.51-9.35 16.77-10.01 16.04-9.94L12.22-9.56L13.35-13.83C13.39-14.00 13.58-14.12 13.76-14.05L18.14-12.39C18.94-12.08 19.75-12.54 19.75-13.37L19.75-18.90C19.75-19.56 19.22-20.10 18.54-20.10C17.88-20.10 17.34-19.56 17.34-18.90L17.34-15.25L15.11-16.11C14.38-16.38 13.58-16.52 12.79-16.52L5.38-16.52C4.82-16.52 4.34-16.13 4.22-15.59L3.02-10.20C2.87-9.54 3.28-8.88 3.94-8.77ZM9.34 5.63C9.89 5.74 10.62 5.37 10.75 4.69L11.94-1.30C11.96-1.41 11.96-1.54 11.96-1.64L11.96-5.29L10.59-4.96C10.07-4.82 9.57-4.78 9.12-4.82L9.56-1.59L8.40 4.20C8.27 4.85 8.68 5.50 9.34 5.63ZM13.91 3.27L21.69 3.27C22.05 3.27 22.35 2.98 22.35 2.61C22.35 2.25 22.05 1.97 21.69 1.97L13.91 1.97C13.55 1.97 13.25 2.25 13.25 2.61C13.25 2.98 13.55 3.27 13.91 3.27ZM12.70 5.91L22.88 5.91C23.24 5.91 23.53 5.61 23.53 5.25C23.53 4.89 23.24 4.61 22.88 4.61L12.70 4.61C12.34 4.61 12.06 4.89 12.06 5.25C12.06 5.61 12.34 5.91 12.70 5.91Z" fill="currentColor"/>
</svg>